<svg width="346" height="346" viewBox="0 0 346 346" fill="none" xmlns="http://www.w3.org/2000/svg">
<rect width="346" height="346" fill="#1E1E1E"/>
<rect x="3" y="3" width="340" height="340" rx="81" fill="#191919" stroke="black" stroke-opacity="0.2" stroke-width="6"/>
<path d="M156.24 245.4C147.92 245.4 140.4 243.72 133.68 240.36C126.96 236.84 121.6 232.12 117.6 226.2C113.6 220.28 111.44 213.48 111.12 205.8V164.76C111.44 157.08 113.6 150.28 117.6 144.36C121.76 138.28 127.12 133.48 133.68 129.96C140.4 126.44 147.92 124.68 156.24 124.68C166.96 124.68 176.56 127.32 185.04 132.6C193.52 137.88 200.16 145.08 204.96 154.2C209.92 163.32 212.4 173.64 212.4 185.16C212.4 196.52 209.92 206.76 204.96 215.88C200.16 225 193.52 232.2 185.04 237.48C176.56 242.76 166.96 245.4 156.24 245.4ZM91.92 291.48V127.08H123.36V157.56L118.08 185.64L123.12 213.72V291.48H91.92ZM150.72 216.36C156.48 216.36 161.6 215.08 166.08 212.52C170.56 209.8 174 206.12 176.4 201.48C178.96 196.68 180.24 191.16 180.24 184.92C180.24 178.84 178.96 173.48 176.4 168.84C174 164.04 170.56 160.36 166.08 157.8C161.6 155.08 156.48 153.72 150.72 153.72C145.12 153.72 140.08 155.08 135.6 157.8C131.12 160.36 127.6 164.04 125.04 168.84C122.64 173.48 121.44 178.84 121.44 184.92C121.44 191.16 122.64 196.68 125.04 201.48C127.6 206.12 131.04 209.8 135.36 212.52C139.84 215.08 144.96 216.36 150.72 216.36Z" fill="white"/>
<ellipse cx="255" cy="223.691" rx="20.5378" ry="20.2213" transform="rotate(0.63988 255 223.691)" fill="#E43232"/>
</svg>
